<?xml version="1.0" encoding="UTF-8" standalone="no"?>
<!DOCTYPE svg PUBLIC "-//W3C//DTD SVG 1.1//EN"
 "http://www.w3.org/Graphics/SVG/1.1/DTD/svg11.dtd">
<!-- Generated by graphviz version 2.38.0 (20140413.2041)
 -->
<!-- Title: %3 Pages: 1 -->
<svg width="873pt" height="378pt"
 viewBox="0.00 0.00 873.00 378.00" xmlns="http://www.w3.org/2000/svg" xmlns:xlink="http://www.w3.org/1999/xlink">
<g id="graph0" class="graph" transform="scale(1 1) rotate(0) translate(4 374)">
<title>%3</title>
<polygon fill="white" stroke="none" points="-4,4 -4,-374 869,-374 869,4 -4,4"/>
<!-- Aluminium ore -->
<g id="node1" class="node"><title>Aluminium ore</title>
<text text-anchor="middle" x="49" y="-111.3" font-family="Times New Roman,serif" font-size="14.00">Aluminium ore</text>
</g>
<!-- Al -->
<g id="node2" class="node"><title>Al</title>
<text text-anchor="middle" x="165" y="-111.3" font-family="Times New Roman,serif" font-size="14.00">Al</text>
</g>
<!-- Aluminium ore&#45;&gt;Al -->
<g id="edge1" class="edge"><title>Aluminium ore&#45;&gt;Al</title>
<path fill="none" stroke="black" d="M98.0159,-115C107.919,-115 118.194,-115 127.603,-115"/>
<polygon fill="black" stroke="black" points="127.792,-118.5 137.792,-115 127.792,-111.5 127.792,-118.5"/>
<text text-anchor="middle" x="118" y="-118.8" font-family="Times New Roman,serif" font-size="14.00">t</text>
</g>
<!-- Empty bucket -->
<g id="node7" class="node"><title>Empty bucket</title>
<text text-anchor="middle" x="296" y="-111.3" font-family="Times New Roman,serif" font-size="14.00">Empty bucket</text>
</g>
<!-- Al&#45;&gt;Empty bucket -->
<g id="edge4" class="edge"><title>Al&#45;&gt;Empty bucket</title>
<path fill="none" stroke="black" d="M192.105,-115C205.331,-115 221.943,-115 237.938,-115"/>
<polygon fill="black" stroke="black" points="238.317,-118.5 248.317,-115 238.317,-111.5 238.317,-118.5"/>
<text text-anchor="middle" x="219.5" y="-118.8" font-family="Times New Roman,serif" font-size="14.00">t, 5</text>
</g>
<!-- Empty balloon -->
<g id="node8" class="node"><title>Empty balloon</title>
<text text-anchor="middle" x="296" y="-165.3" font-family="Times New Roman,serif" font-size="14.00">Empty balloon</text>
</g>
<!-- Al&#45;&gt;Empty balloon -->
<g id="edge5" class="edge"><title>Al&#45;&gt;Empty balloon</title>
<path fill="none" stroke="black" d="M192.027,-126.326C197.928,-128.87 204.173,-131.543 210,-134 220.132,-138.273 230.969,-142.782 241.395,-147.09"/>
<polygon fill="black" stroke="black" points="240.245,-150.401 250.824,-150.977 242.913,-143.929 240.245,-150.401"/>
<text text-anchor="middle" x="219.5" y="-144.8" font-family="Times New Roman,serif" font-size="14.00">t, 3</text>
</g>
<!-- Aluminium case -->
<g id="node13" class="node"><title>Aluminium case</title>
<text text-anchor="middle" x="415.5" y="-14.3" font-family="Times New Roman,serif" font-size="14.00">Aluminium case</text>
</g>
<!-- Al&#45;&gt;Aluminium case -->
<g id="edge11" class="edge"><title>Al&#45;&gt;Aluminium case</title>
<path fill="none" stroke="black" d="M178.176,-96.8733C192.247,-77.5924 217.316,-47.9862 247,-34 279.549,-18.6641 319.551,-14.3816 352.3,-14.0663"/>
<polygon fill="black" stroke="black" points="352.65,-17.5671 362.66,-14.0943 352.669,-10.5672 352.65,-17.5671"/>
<text text-anchor="middle" x="219.5" y="-63.8" font-family="Times New Roman,serif" font-size="14.00">t</text>
</g>
<!-- Potassium ore -->
<g id="node3" class="node"><title>Potassium ore</title>
<text text-anchor="middle" x="296" y="-280.3" font-family="Times New Roman,serif" font-size="14.00">Potassium ore</text>
</g>
<!-- K -->
<g id="node4" class="node"><title>K</title>
<text text-anchor="middle" x="517.5" y="-253.3" font-family="Times New Roman,serif" font-size="14.00">K</text>
</g>
<!-- Potassium ore&#45;&gt;K -->
<g id="edge2" class="edge"><title>Potassium ore&#45;&gt;K</title>
<path fill="none" stroke="black" d="M344.088,-278.208C384.79,-273.201 442.782,-266.068 480.034,-261.486"/>
<polygon fill="black" stroke="black" points="480.924,-264.903 490.422,-260.208 480.07,-257.955 480.924,-264.903"/>
<text text-anchor="middle" x="415.5" y="-278.8" font-family="Times New Roman,serif" font-size="14.00">t</text>
</g>
<!-- KOH -->
<g id="node15" class="node"><title>KOH</title>
<text text-anchor="middle" x="619" y="-157.3" font-family="Times New Roman,serif" font-size="14.00">KOH</text>
</g>
<!-- K&#45;&gt;KOH -->
<g id="edge16" class="edge"><title>K&#45;&gt;KOH</title>
<path fill="none" stroke="black" d="M537.215,-238.943C552.544,-224.154 574.418,-203.049 591.539,-186.53"/>
<polygon fill="black" stroke="black" points="594.264,-188.764 599.03,-179.302 589.404,-183.727 594.264,-188.764"/>
<text text-anchor="middle" x="570.5" y="-212.8" font-family="Times New Roman,serif" font-size="14.00">2</text>
</g>
<!-- Zinc ore -->
<g id="node5" class="node"><title>Zinc ore</title>
<text text-anchor="middle" x="517.5" y="-348.3" font-family="Times New Roman,serif" font-size="14.00">Zinc ore</text>
</g>
<!-- Zn -->
<g id="node6" class="node"><title>Zn</title>
<text text-anchor="middle" x="619" y="-348.3" font-family="Times New Roman,serif" font-size="14.00">Zn</text>
</g>
<!-- Zinc ore&#45;&gt;Zn -->
<g id="edge3" class="edge"><title>Zinc ore&#45;&gt;Zn</title>
<path fill="none" stroke="black" d="M549.165,-352C559.443,-352 571.002,-352 581.671,-352"/>
<polygon fill="black" stroke="black" points="581.963,-355.5 591.963,-352 581.963,-348.5 581.963,-355.5"/>
<text text-anchor="middle" x="570.5" y="-355.8" font-family="Times New Roman,serif" font-size="14.00">t</text>
</g>
<!-- Battery -->
<g id="node14" class="node"><title>Battery</title>
<text text-anchor="middle" x="727" y="-230.3" font-family="Times New Roman,serif" font-size="14.00">Battery</text>
</g>
<!-- Zn&#45;&gt;Battery -->
<g id="edge14" class="edge"><title>Zn&#45;&gt;Battery</title>
<path fill="none" stroke="black" d="M646.312,-337.103C653.779,-332.199 661.609,-326.357 668,-320 685.505,-302.588 700.896,-279.16 711.416,-261.154"/>
<polygon fill="black" stroke="black" points="714.555,-262.715 716.459,-252.292 708.471,-259.252 714.555,-262.715"/>
<text text-anchor="middle" x="666" y="-326.8" font-family="Times New Roman,serif" font-size="14.00">t</text>
</g>
<!-- O₂ -->
<g id="node10" class="node"><title>O₂</title>
<text text-anchor="middle" x="517.5" y="-196.3" font-family="Times New Roman,serif" font-size="14.00">O₂</text>
</g>
<!-- Empty bucket&#45;&gt;O₂ -->
<g id="edge8" class="edge"><title>Empty bucket&#45;&gt;O₂</title>
<path fill="none" stroke="black" d="M343.592,-121.662C379.128,-128.043 428.521,-139.773 468,-160 475.959,-164.078 483.792,-169.643 490.764,-175.326"/>
<polygon fill="black" stroke="black" points="488.64,-178.115 498.509,-181.969 493.197,-172.802 488.64,-178.115"/>
<text text-anchor="middle" x="415.5" y="-163.8" font-family="Times New Roman,serif" font-size="14.00">t, 2</text>
</g>
<!-- H₂O -->
<g id="node11" class="node"><title>H₂O</title>
<text text-anchor="middle" x="517.5" y="-79.3" font-family="Times New Roman,serif" font-size="14.00">H₂O</text>
</g>
<!-- Empty bucket&#45;&gt;H₂O -->
<g id="edge9" class="edge"><title>Empty bucket&#45;&gt;H₂O</title>
<path fill="none" stroke="black" d="M343.742,-103.689C350.189,-102.331 356.743,-101.054 363,-100 402.907,-93.2774 449.117,-88.5724 480.324,-85.8428"/>
<polygon fill="black" stroke="black" points="480.635,-89.3291 490.302,-84.9928 480.041,-82.3544 480.635,-89.3291"/>
<text text-anchor="middle" x="415.5" y="-103.8" font-family="Times New Roman,serif" font-size="14.00">t, 5</text>
</g>
<!-- Empty balloon&#45;&gt;O₂ -->
<g id="edge7" class="edge"><title>Empty balloon&#45;&gt;O₂</title>
<path fill="none" stroke="black" d="M345.17,-175.803C385.831,-181.546 443.164,-189.643 480.084,-194.857"/>
<polygon fill="black" stroke="black" points="479.994,-198.379 490.386,-196.312 480.973,-191.448 479.994,-198.379"/>
<text text-anchor="middle" x="415.5" y="-195.8" font-family="Times New Roman,serif" font-size="14.00">t</text>
</g>
<!-- Empty balloon&#45;&gt;KOH -->
<g id="edge18" class="edge"><title>Empty balloon&#45;&gt;KOH</title>
<path fill="none" stroke="black" d="M335.716,-150.971C344.503,-147.668 353.926,-144.723 363,-143 439.935,-128.392 531.958,-142.473 581.72,-152.634"/>
<polygon fill="black" stroke="black" points="581.17,-156.095 591.677,-154.731 582.613,-149.245 581.17,-156.095"/>
</g>
<!-- HgO -->
<g id="node9" class="node"><title>HgO</title>
<text text-anchor="middle" x="296" y="-226.3" font-family="Times New Roman,serif" font-size="14.00">HgO</text>
</g>
<!-- HgO&#45;&gt;O₂ -->
<g id="edge6" class="edge"><title>HgO&#45;&gt;O₂</title>
<path fill="none" stroke="black" d="M323.051,-229.777C356.811,-229.054 417.352,-226.276 468,-216 472.155,-215.157 476.449,-214.071 480.686,-212.862"/>
<polygon fill="black" stroke="black" points="481.852,-216.165 490.377,-209.874 479.789,-209.476 481.852,-216.165"/>
<text text-anchor="middle" x="415.5" y="-231.8" font-family="Times New Roman,serif" font-size="14.00">t, 2</text>
</g>
<!-- HgO&#45;&gt;Battery -->
<g id="edge12" class="edge"><title>HgO&#45;&gt;Battery</title>
<path fill="none" stroke="black" d="M323.344,-241.245C330.982,-245.396 338.897,-250.665 345,-257 357.136,-269.598 348.068,-282.889 363,-292 467.843,-355.976 620.196,-290.987 689.378,-254.777"/>
<polygon fill="black" stroke="black" points="691.396,-257.667 698.575,-249.875 688.104,-251.49 691.396,-257.667"/>
<text text-anchor="middle" x="570.5" y="-306.8" font-family="Times New Roman,serif" font-size="14.00">t</text>
</g>
<!-- H₂O&#45;&gt;KOH -->
<g id="edge17" class="edge"><title>H₂O&#45;&gt;KOH</title>
<path fill="none" stroke="black" d="M544.671,-87.3353C554.516,-89.8714 565.398,-93.8384 574,-100 586.266,-108.786 596.423,-122.068 603.876,-133.997"/>
<polygon fill="black" stroke="black" points="600.947,-135.92 609.039,-142.759 606.978,-132.366 600.947,-135.92"/>
<text text-anchor="middle" x="570.5" y="-103.8" font-family="Times New Roman,serif" font-size="14.00">2</text>
</g>
<!-- CuSO₄·5H₂O -->
<g id="node12" class="node"><title>CuSO₄·5H₂O</title>
<text text-anchor="middle" x="296" y="-57.3" font-family="Times New Roman,serif" font-size="14.00">CuSO₄·5H₂O</text>
</g>
<!-- CuSO₄·5H₂O&#45;&gt;H₂O -->
<g id="edge10" class="edge"><title>CuSO₄·5H₂O&#45;&gt;H₂O</title>
<path fill="none" stroke="black" d="M342.168,-56.3806C376.949,-53.9926 426.019,-53.1734 468,-62 472.243,-62.892 476.571,-64.1702 480.81,-65.6615"/>
<polygon fill="black" stroke="black" points="479.866,-69.0508 490.453,-69.4468 482.423,-62.5348 479.866,-69.0508"/>
<text text-anchor="middle" x="415.5" y="-65.8" font-family="Times New Roman,serif" font-size="14.00">t</text>
</g>
<!-- Aluminium case&#45;&gt;Battery -->
<g id="edge15" class="edge"><title>Aluminium case&#45;&gt;Battery</title>
<path fill="none" stroke="black" d="M468.309,-27.843C493.547,-33.8714 523.808,-42.9799 549,-56 565.803,-64.6842 612.683,-94.2007 646,-134 669.748,-162.368 661.077,-179.659 686,-207 687.513,-208.66 689.149,-210.269 690.863,-211.818"/>
<polygon fill="black" stroke="black" points="688.786,-214.64 698.761,-218.212 693.191,-209.2 688.786,-214.64"/>
<text text-anchor="middle" x="570.5" y="-74.8" font-family="Times New Roman,serif" font-size="14.00">t</text>
</g>
<!-- Drill -->
<g id="node17" class="node"><title>Drill</title>
<text text-anchor="middle" x="838" y="-197.3" font-family="Times New Roman,serif" font-size="14.00">Drill</text>
</g>
<!-- Battery&#45;&gt;Drill -->
<g id="edge20" class="edge"><title>Battery&#45;&gt;Drill</title>
<path fill="none" stroke="black" d="M755.224,-225.758C769.057,-221.57 786.049,-216.426 800.953,-211.913"/>
<polygon fill="black" stroke="black" points="802.317,-215.157 810.873,-208.91 800.288,-208.458 802.317,-215.157"/>
<text text-anchor="middle" x="789.5" y="-218.8" font-family="Times New Roman,serif" font-size="14.00">2</text>
</g>
<!-- KOH&#45;&gt;Battery -->
<g id="edge13" class="edge"><title>KOH&#45;&gt;Battery</title>
<path fill="none" stroke="black" d="M645.64,-179.002C657.836,-187.532 672.64,-197.836 686,-207 687.425,-207.977 688.88,-208.973 690.351,-209.976"/>
<polygon fill="black" stroke="black" points="688.614,-213.028 698.852,-215.755 692.549,-207.239 688.614,-213.028"/>
<text text-anchor="middle" x="666" y="-197.8" font-family="Times New Roman,serif" font-size="14.00">t</text>
</g>
<!-- Broken drill -->
<g id="node16" class="node"><title>Broken drill</title>
<text text-anchor="middle" x="727" y="-176.3" font-family="Times New Roman,serif" font-size="14.00">Broken drill</text>
</g>
<!-- Broken drill&#45;&gt;Drill -->
<g id="edge19" class="edge"><title>Broken drill&#45;&gt;Drill</title>
<path fill="none" stroke="black" d="M768.278,-187.76C778.921,-189.81 790.342,-192.011 800.758,-194.018"/>
<polygon fill="black" stroke="black" points="800.29,-197.492 810.772,-195.947 801.614,-190.618 800.29,-197.492"/>
</g>
</g>
</svg>
