<?xml version="1.0" encoding="UTF-8" standalone="no"?>
<!DOCTYPE svg PUBLIC "-//W3C//DTD SVG 1.1//EN"
 "http://www.w3.org/Graphics/SVG/1.1/DTD/svg11.dtd">
<!-- Generated by graphviz version 2.38.0 (20140413.2041)
 -->
<!-- Title: %3 Pages: 1 -->
<svg width="662pt" height="269pt"
 viewBox="0.00 0.00 662.00 269.00" xmlns="http://www.w3.org/2000/svg" xmlns:xlink="http://www.w3.org/1999/xlink">
<g id="graph0" class="graph" transform="scale(1 1) rotate(0) translate(4 265)">
<title>%3</title>
<polygon fill="white" stroke="none" points="-4,4 -4,-265 658,-265 658,4 -4,4"/>
<!-- PbSO₄ -->
<g id="node1" class="node"><title>PbSO₄</title>
<text text-anchor="middle" x="47.5" y="-239.3" font-family="Times New Roman,serif" font-size="14.00">PbSO₄</text>
</g>
<!-- PbO -->
<g id="node2" class="node"><title>PbO</title>
<text text-anchor="middle" x="199" y="-214.3" font-family="Times New Roman,serif" font-size="14.00">PbO</text>
</g>
<!-- PbSO₄&#45;&gt;PbO -->
<g id="edge1" class="edge"><title>PbSO₄&#45;&gt;PbO</title>
<path fill="none" stroke="black" d="M75.5733,-238.473C99.6412,-234.448 135.027,-228.531 161.573,-224.092"/>
<polygon fill="black" stroke="black" points="162.344,-227.511 171.63,-222.41 161.19,-220.607 162.344,-227.511"/>
<text text-anchor="middle" x="122.5" y="-234.8" font-family="Times New Roman,serif" font-size="14.00">t</text>
</g>
<!-- Pb -->
<g id="node9" class="node"><title>Pb</title>
<text text-anchor="middle" x="412" y="-168.3" font-family="Times New Roman,serif" font-size="14.00">Pb</text>
</g>
<!-- PbO&#45;&gt;Pb -->
<g id="edge8" class="edge"><title>PbO&#45;&gt;Pb</title>
<path fill="none" stroke="black" d="M226.245,-213.962C259.317,-208.647 317.787,-198.497 367,-186 369.605,-185.338 372.283,-184.61 374.969,-183.843"/>
<polygon fill="black" stroke="black" points="376.046,-187.175 384.622,-180.953 374.038,-180.469 376.046,-187.175"/>
<text text-anchor="middle" x="318" y="-205.8" font-family="Times New Roman,serif" font-size="14.00">t</text>
</g>
<!-- Empty bucket -->
<g id="node3" class="node"><title>Empty bucket</title>
<text text-anchor="middle" x="47.5" y="-168.3" font-family="Times New Roman,serif" font-size="14.00">Empty bucket</text>
</g>
<!-- Empty bucket&#45;&gt;PbO -->
<g id="edge2" class="edge"><title>Empty bucket&#45;&gt;PbO</title>
<path fill="none" stroke="black" d="M95.3926,-186.428C116.93,-193.055 142.067,-200.79 162.071,-206.945"/>
<polygon fill="black" stroke="black" points="161.141,-210.321 171.728,-209.916 163.199,-203.63 161.141,-210.321"/>
<text text-anchor="middle" x="122.5" y="-199.8" font-family="Times New Roman,serif" font-size="14.00">t</text>
</g>
<!-- H₂O -->
<g id="node4" class="node"><title>H₂O</title>
<text text-anchor="middle" x="199" y="-122.3" font-family="Times New Roman,serif" font-size="14.00">H₂O</text>
</g>
<!-- Empty bucket&#45;&gt;H₂O -->
<g id="edge3" class="edge"><title>Empty bucket&#45;&gt;H₂O</title>
<path fill="none" stroke="black" d="M84.7765,-153.974C93.8393,-149.952 103.646,-145.996 113,-143 128.72,-137.965 146.574,-134.124 161.847,-131.378"/>
<polygon fill="black" stroke="black" points="162.683,-134.785 171.95,-129.65 161.503,-127.886 162.683,-134.785"/>
<text text-anchor="middle" x="122.5" y="-146.8" font-family="Times New Roman,serif" font-size="14.00">t, 5</text>
</g>
<!-- Empty bucket&#45;&gt;Pb -->
<g id="edge10" class="edge"><title>Empty bucket&#45;&gt;Pb</title>
<path fill="none" stroke="black" d="M95.1484,-172C168.147,-172 307.879,-172 374.249,-172"/>
<polygon fill="black" stroke="black" points="374.628,-175.5 384.628,-172 374.628,-168.5 374.628,-175.5"/>
<text text-anchor="middle" x="269.5" y="-175.8" font-family="Times New Roman,serif" font-size="14.00">t</text>
</g>
<!-- H₂ -->
<g id="node7" class="node"><title>H₂</title>
<text text-anchor="middle" x="318" y="-85.3" font-family="Times New Roman,serif" font-size="14.00">H₂</text>
</g>
<!-- H₂O&#45;&gt;H₂ -->
<g id="edge6" class="edge"><title>H₂O&#45;&gt;H₂</title>
<path fill="none" stroke="black" d="M226.257,-117.696C242.365,-112.603 263.215,-106.009 280.867,-100.427"/>
<polygon fill="black" stroke="black" points="282.351,-103.628 290.831,-97.2758 280.241,-96.954 282.351,-103.628"/>
<text text-anchor="middle" x="269.5" y="-107.8" font-family="Times New Roman,serif" font-size="14.00">2</text>
</g>
<!-- CuSO₄·5H₂O -->
<g id="node5" class="node"><title>CuSO₄·5H₂O</title>
<text text-anchor="middle" x="47.5" y="-100.3" font-family="Times New Roman,serif" font-size="14.00">CuSO₄·5H₂O</text>
</g>
<!-- CuSO₄·5H₂O&#45;&gt;H₂O -->
<g id="edge4" class="edge"><title>CuSO₄·5H₂O&#45;&gt;H₂O</title>
<path fill="none" stroke="black" d="M93.7778,-102.109C106.229,-102.249 119.691,-103.013 132,-105 141.956,-106.607 152.472,-109.415 162.113,-112.464"/>
<polygon fill="black" stroke="black" points="161.189,-115.845 171.782,-115.689 163.403,-109.205 161.189,-115.845"/>
<text text-anchor="middle" x="122.5" y="-108.8" font-family="Times New Roman,serif" font-size="14.00">t</text>
</g>
<!-- K -->
<g id="node6" class="node"><title>K</title>
<text text-anchor="middle" x="199" y="-68.3" font-family="Times New Roman,serif" font-size="14.00">K</text>
</g>
<!-- K&#45;&gt;H₂ -->
<g id="edge5" class="edge"><title>K&#45;&gt;H₂</title>
<path fill="none" stroke="black" d="M226.065,-74.8471C240.014,-76.4632 257.473,-78.6333 273,-81 275.643,-81.4029 278.372,-81.8422 281.114,-82.3007"/>
<polygon fill="black" stroke="black" points="280.531,-85.7518 290.983,-84.0153 281.73,-78.8552 280.531,-85.7518"/>
<text text-anchor="middle" x="269.5" y="-84.8" font-family="Times New Roman,serif" font-size="14.00">2</text>
</g>
<!-- H₂&#45;&gt;Pb -->
<g id="edge9" class="edge"><title>H₂&#45;&gt;Pb</title>
<path fill="none" stroke="black" d="M338.963,-107.01C351.894,-118.676 368.918,-134.035 383.17,-146.892"/>
<polygon fill="black" stroke="black" points="380.989,-149.639 390.759,-153.739 385.678,-144.441 380.989,-149.639"/>
<text text-anchor="middle" x="365" y="-133.8" font-family="Times New Roman,serif" font-size="14.00">t</text>
</g>
<!-- Empty balloon -->
<g id="node8" class="node"><title>Empty balloon</title>
<text text-anchor="middle" x="199" y="-14.3" font-family="Times New Roman,serif" font-size="14.00">Empty balloon</text>
</g>
<!-- Empty balloon&#45;&gt;H₂ -->
<g id="edge7" class="edge"><title>Empty balloon&#45;&gt;H₂</title>
<path fill="none" stroke="black" d="M232.673,-36.0588C237.829,-39.0003 243.08,-42.0504 248,-45 259.25,-51.7439 271.359,-59.346 282.245,-66.3103"/>
<polygon fill="black" stroke="black" points="280.369,-69.2652 290.673,-71.7302 284.156,-63.3775 280.369,-69.2652"/>
</g>
<!-- Lead case -->
<g id="node10" class="node"><title>Lead case</title>
<text text-anchor="middle" x="518.5" y="-203.3" font-family="Times New Roman,serif" font-size="14.00">Lead case</text>
</g>
<!-- Pb&#45;&gt;Lead case -->
<g id="edge11" class="edge"><title>Pb&#45;&gt;Lead case</title>
<path fill="none" stroke="black" d="M439.1,-180.742C449.106,-184.093 460.836,-188.022 472.13,-191.804"/>
<polygon fill="black" stroke="black" points="471.294,-195.215 481.887,-195.072 473.517,-188.578 471.294,-195.215"/>
<text text-anchor="middle" x="460.5" y="-191.8" font-family="Times New Roman,serif" font-size="14.00">4</text>
</g>
<!-- Furnace -->
<g id="node11" class="node"><title>Furnace</title>
<text text-anchor="middle" x="623" y="-171.3" font-family="Times New Roman,serif" font-size="14.00">Furnace</text>
</g>
<!-- Pb&#45;&gt;Furnace -->
<g id="edge13" class="edge"><title>Pb&#45;&gt;Furnace</title>
<path fill="none" stroke="black" d="M439.165,-168.717C452.042,-167.261 467.81,-165.718 482,-165 514.403,-163.361 522.645,-162.599 555,-165 563.683,-165.644 572.947,-166.752 581.73,-168.002"/>
<polygon fill="black" stroke="black" points="581.345,-171.483 591.755,-169.515 582.39,-164.562 581.345,-171.483"/>
<text text-anchor="middle" x="518.5" y="-168.8" font-family="Times New Roman,serif" font-size="14.00">3</text>
</g>
<!-- Lead case&#45;&gt;Furnace -->
<g id="edge12" class="edge"><title>Lead case&#45;&gt;Furnace</title>
<path fill="none" stroke="black" d="M555.062,-195.898C563.8,-193.17 573.212,-190.231 582.138,-187.445"/>
<polygon fill="black" stroke="black" points="583.445,-190.703 591.948,-184.382 581.359,-184.021 583.445,-190.703"/>
</g>
</g>
</svg>
