<?xml version="1.0" encoding="UTF-8" standalone="no"?>
<!DOCTYPE svg PUBLIC "-//W3C//DTD SVG 1.1//EN"
 "http://www.w3.org/Graphics/SVG/1.1/DTD/svg11.dtd">
<!-- Generated by graphviz version 2.38.0 (20140413.2041)
 -->
<!-- Title: %3 Pages: 1 -->
<svg width="915pt" height="378pt"
 viewBox="0.00 0.00 915.00 378.00" xmlns="http://www.w3.org/2000/svg" xmlns:xlink="http://www.w3.org/1999/xlink">
<g id="graph0" class="graph" transform="scale(1 1) rotate(0) translate(4 374)">
<title>%3</title>
<polygon fill="white" stroke="none" points="-4,4 -4,-374 911,-374 911,4 -4,4"/>
<!-- Aluminium ore -->
<g id="node1" class="node"><title>Aluminium ore</title>
<text text-anchor="middle" x="49" y="-111.3" font-family="Times New Roman,serif" font-size="14.00">Aluminium ore</text>
</g>
<!-- Al -->
<g id="node2" class="node"><title>Al</title>
<text text-anchor="middle" x="165" y="-111.3" font-family="Times New Roman,serif" font-size="14.00">Al</text>
</g>
<!-- Aluminium ore&#45;&gt;Al -->
<g id="edge1" class="edge"><title>Aluminium ore&#45;&gt;Al</title>
<path fill="none" stroke="black" d="M98.0159,-115C107.919,-115 118.194,-115 127.603,-115"/>
<polygon fill="black" stroke="black" points="127.792,-118.5 137.792,-115 127.792,-111.5 127.792,-118.5"/>
<text text-anchor="middle" x="118" y="-118.8" font-family="Times New Roman,serif" font-size="14.00">t</text>
</g>
<!-- Empty bucket -->
<g id="node7" class="node"><title>Empty bucket</title>
<text text-anchor="middle" x="296" y="-111.3" font-family="Times New Roman,serif" font-size="14.00">Empty bucket</text>
</g>
<!-- Al&#45;&gt;Empty bucket -->
<g id="edge4" class="edge"><title>Al&#45;&gt;Empty bucket</title>
<path fill="none" stroke="black" d="M192.105,-115C205.331,-115 221.943,-115 237.938,-115"/>
<polygon fill="black" stroke="black" points="238.317,-118.5 248.317,-115 238.317,-111.5 238.317,-118.5"/>
<text text-anchor="middle" x="219.5" y="-118.8" font-family="Times New Roman,serif" font-size="14.00">t, 5</text>
</g>
<!-- Empty balloon -->
<g id="node8" class="node"><title>Empty balloon</title>
<text text-anchor="middle" x="296" y="-165.3" font-family="Times New Roman,serif" font-size="14.00">Empty balloon</text>
</g>
<!-- Al&#45;&gt;Empty balloon -->
<g id="edge5" class="edge"><title>Al&#45;&gt;Empty balloon</title>
<path fill="none" stroke="black" d="M192.027,-126.326C197.928,-128.87 204.173,-131.543 210,-134 220.132,-138.273 230.969,-142.782 241.395,-147.09"/>
<polygon fill="black" stroke="black" points="240.245,-150.401 250.824,-150.977 242.913,-143.929 240.245,-150.401"/>
<text text-anchor="middle" x="219.5" y="-144.8" font-family="Times New Roman,serif" font-size="14.00">t, 3</text>
</g>
<!-- Aluminium case -->
<g id="node13" class="node"><title>Aluminium case</title>
<text text-anchor="middle" x="415.5" y="-14.3" font-family="Times New Roman,serif" font-size="14.00">Aluminium case</text>
</g>
<!-- Al&#45;&gt;Aluminium case -->
<g id="edge11" class="edge"><title>Al&#45;&gt;Aluminium case</title>
<path fill="none" stroke="black" d="M178.176,-96.8733C192.247,-77.5924 217.316,-47.9862 247,-34 279.549,-18.6641 319.551,-14.3816 352.3,-14.0663"/>
<polygon fill="black" stroke="black" points="352.65,-17.5671 362.66,-14.0943 352.669,-10.5672 352.65,-17.5671"/>
<text text-anchor="middle" x="219.5" y="-63.8" font-family="Times New Roman,serif" font-size="14.00">t</text>
</g>
<!-- Potassium ore -->
<g id="node3" class="node"><title>Potassium ore</title>
<text text-anchor="middle" x="296" y="-280.3" font-family="Times New Roman,serif" font-size="14.00">Potassium ore</text>
</g>
<!-- K -->
<g id="node4" class="node"><title>K</title>
<text text-anchor="middle" x="538.5" y="-253.3" font-family="Times New Roman,serif" font-size="14.00">K</text>
</g>
<!-- Potassium ore&#45;&gt;K -->
<g id="edge2" class="edge"><title>Potassium ore&#45;&gt;K</title>
<path fill="none" stroke="black" d="M344.228,-278.698C390.258,-273.53 459.262,-265.783 501.163,-261.079"/>
<polygon fill="black" stroke="black" points="501.654,-264.546 511.201,-259.953 500.873,-257.59 501.654,-264.546"/>
<text text-anchor="middle" x="415.5" y="-279.8" font-family="Times New Roman,serif" font-size="14.00">t</text>
</g>
<!-- KOH -->
<g id="node15" class="node"><title>KOH</title>
<text text-anchor="middle" x="661" y="-157.3" font-family="Times New Roman,serif" font-size="14.00">KOH</text>
</g>
<!-- K&#45;&gt;KOH -->
<g id="edge16" class="edge"><title>K&#45;&gt;KOH</title>
<path fill="none" stroke="black" d="M565.669,-243.343C574.03,-238.568 583.147,-232.912 591,-227 607.163,-214.832 623.598,-199.265 636.371,-186.306"/>
<polygon fill="black" stroke="black" points="638.987,-188.636 643.439,-179.022 633.963,-183.761 638.987,-188.636"/>
<text text-anchor="middle" x="612.5" y="-215.8" font-family="Times New Roman,serif" font-size="14.00">2</text>
</g>
<!-- Zinc ore -->
<g id="node5" class="node"><title>Zinc ore</title>
<text text-anchor="middle" x="538.5" y="-348.3" font-family="Times New Roman,serif" font-size="14.00">Zinc ore</text>
</g>
<!-- Zn -->
<g id="node6" class="node"><title>Zn</title>
<text text-anchor="middle" x="661" y="-348.3" font-family="Times New Roman,serif" font-size="14.00">Zn</text>
</g>
<!-- Zinc ore&#45;&gt;Zn -->
<g id="edge3" class="edge"><title>Zinc ore&#45;&gt;Zn</title>
<path fill="none" stroke="black" d="M570.219,-352C586.503,-352 606.61,-352 623.666,-352"/>
<polygon fill="black" stroke="black" points="623.829,-355.5 633.829,-352 623.829,-348.5 623.829,-355.5"/>
<text text-anchor="middle" x="612.5" y="-355.8" font-family="Times New Roman,serif" font-size="14.00">t</text>
</g>
<!-- Battery -->
<g id="node14" class="node"><title>Battery</title>
<text text-anchor="middle" x="769" y="-230.3" font-family="Times New Roman,serif" font-size="14.00">Battery</text>
</g>
<!-- Zn&#45;&gt;Battery -->
<g id="edge14" class="edge"><title>Zn&#45;&gt;Battery</title>
<path fill="none" stroke="black" d="M688.312,-337.103C695.779,-332.199 703.609,-326.357 710,-320 727.505,-302.588 742.896,-279.16 753.416,-261.154"/>
<polygon fill="black" stroke="black" points="756.555,-262.715 758.459,-252.292 750.471,-259.252 756.555,-262.715"/>
<text text-anchor="middle" x="708" y="-326.8" font-family="Times New Roman,serif" font-size="14.00">t</text>
</g>
<!-- Oxygen balloon -->
<g id="node10" class="node"><title>Oxygen balloon</title>
<text text-anchor="middle" x="538.5" y="-196.3" font-family="Times New Roman,serif" font-size="14.00">Oxygen balloon</text>
</g>
<!-- Empty bucket&#45;&gt;Oxygen balloon -->
<g id="edge8" class="edge"><title>Empty bucket&#45;&gt;Oxygen balloon</title>
<path fill="none" stroke="black" d="M343.864,-123.352C378.886,-130.472 427.496,-142.236 468,-159 479.63,-163.813 491.656,-170.298 502.369,-176.688"/>
<polygon fill="black" stroke="black" points="500.667,-179.75 511.022,-181.995 504.327,-173.783 500.667,-179.75"/>
<text text-anchor="middle" x="415.5" y="-162.8" font-family="Times New Roman,serif" font-size="14.00">t, 2</text>
</g>
<!-- H₂O -->
<g id="node11" class="node"><title>H₂O</title>
<text text-anchor="middle" x="538.5" y="-79.3" font-family="Times New Roman,serif" font-size="14.00">H₂O</text>
</g>
<!-- Empty bucket&#45;&gt;H₂O -->
<g id="edge9" class="edge"><title>Empty bucket&#45;&gt;H₂O</title>
<path fill="none" stroke="black" d="M343.729,-103.612C350.178,-102.266 356.736,-101.013 363,-100 410.382,-92.3391 465.601,-87.6658 501.024,-85.2063"/>
<polygon fill="black" stroke="black" points="501.608,-88.6751 511.351,-84.5133 501.14,-81.6908 501.608,-88.6751"/>
<text text-anchor="middle" x="415.5" y="-103.8" font-family="Times New Roman,serif" font-size="14.00">t, 5</text>
</g>
<!-- Empty balloon&#45;&gt;Oxygen balloon -->
<g id="edge7" class="edge"><title>Empty balloon&#45;&gt;Oxygen balloon</title>
<path fill="none" stroke="black" d="M345.294,-175.643C351.256,-176.446 357.267,-177.248 363,-178 400.452,-182.914 442.454,-188.216 475.865,-192.384"/>
<polygon fill="black" stroke="black" points="475.587,-195.876 485.943,-193.639 476.452,-188.93 475.587,-195.876"/>
<text text-anchor="middle" x="415.5" y="-194.8" font-family="Times New Roman,serif" font-size="14.00">t</text>
</g>
<!-- Empty balloon&#45;&gt;KOH -->
<g id="edge18" class="edge"><title>Empty balloon&#45;&gt;KOH</title>
<path fill="none" stroke="black" d="M335.716,-150.971C344.503,-147.668 353.926,-144.723 363,-143 455.926,-125.356 567.861,-142.16 624.073,-153.161"/>
<polygon fill="black" stroke="black" points="623.41,-156.597 633.904,-155.138 624.79,-149.735 623.41,-156.597"/>
</g>
<!-- HgO -->
<g id="node9" class="node"><title>HgO</title>
<text text-anchor="middle" x="296" y="-226.3" font-family="Times New Roman,serif" font-size="14.00">HgO</text>
</g>
<!-- HgO&#45;&gt;Oxygen balloon -->
<g id="edge6" class="edge"><title>HgO&#45;&gt;Oxygen balloon</title>
<path fill="none" stroke="black" d="M323.211,-229.032C356.888,-227.518 417.078,-223.904 468,-216 470.516,-215.61 473.076,-215.179 475.657,-214.716"/>
<polygon fill="black" stroke="black" points="476.505,-218.117 485.666,-212.795 475.186,-211.243 476.505,-218.117"/>
<text text-anchor="middle" x="415.5" y="-229.8" font-family="Times New Roman,serif" font-size="14.00">t, 2</text>
</g>
<!-- HgO&#45;&gt;Battery -->
<g id="edge12" class="edge"><title>HgO&#45;&gt;Battery</title>
<path fill="none" stroke="black" d="M323.344,-241.245C330.982,-245.396 338.897,-250.665 345,-257 357.136,-269.598 348.068,-282.889 363,-292 482.199,-364.736 657.163,-291.555 731.949,-253.672"/>
<polygon fill="black" stroke="black" points="733.695,-256.71 740.983,-249.019 730.49,-250.487 733.695,-256.71"/>
<text text-anchor="middle" x="612.5" y="-305.8" font-family="Times New Roman,serif" font-size="14.00">t</text>
</g>
<!-- H₂O&#45;&gt;KOH -->
<g id="edge17" class="edge"><title>H₂O&#45;&gt;KOH</title>
<path fill="none" stroke="black" d="M565.758,-84.1907C581.431,-85.9767 601.114,-90.1985 616,-100 628.775,-108.412 639.072,-121.898 646.483,-134.053"/>
<polygon fill="black" stroke="black" points="643.584,-136.033 651.582,-142.982 649.663,-132.563 643.584,-136.033"/>
<text text-anchor="middle" x="612.5" y="-103.8" font-family="Times New Roman,serif" font-size="14.00">2</text>
</g>
<!-- CuSO₄·5H₂O -->
<g id="node12" class="node"><title>CuSO₄·5H₂O</title>
<text text-anchor="middle" x="296" y="-57.3" font-family="Times New Roman,serif" font-size="14.00">CuSO₄·5H₂O</text>
</g>
<!-- CuSO₄·5H₂O&#45;&gt;H₂O -->
<g id="edge10" class="edge"><title>CuSO₄·5H₂O&#45;&gt;H₂O</title>
<path fill="none" stroke="black" d="M342.278,-57.747C376.906,-56.1068 425.727,-55.6266 468,-62 479.051,-63.6661 490.784,-66.6972 501.401,-69.9479"/>
<polygon fill="black" stroke="black" points="500.588,-73.3629 511.179,-73.0944 502.732,-66.6994 500.588,-73.3629"/>
<text text-anchor="middle" x="415.5" y="-65.8" font-family="Times New Roman,serif" font-size="14.00">t</text>
</g>
<!-- Aluminium case&#45;&gt;Battery -->
<g id="edge15" class="edge"><title>Aluminium case&#45;&gt;Battery</title>
<path fill="none" stroke="black" d="M468.164,-22.9115C504.012,-27.8101 552.116,-37.4161 591,-56 640.913,-79.8547 652.472,-91.5963 688,-134 711.76,-162.358 703.077,-179.659 728,-207 729.513,-208.66 731.149,-210.269 732.863,-211.818"/>
<polygon fill="black" stroke="black" points="730.786,-214.64 740.761,-218.212 735.191,-209.2 730.786,-214.64"/>
<text text-anchor="middle" x="612.5" y="-72.8" font-family="Times New Roman,serif" font-size="14.00">t</text>
</g>
<!-- Drill -->
<g id="node17" class="node"><title>Drill</title>
<text text-anchor="middle" x="880" y="-197.3" font-family="Times New Roman,serif" font-size="14.00">Drill</text>
</g>
<!-- Battery&#45;&gt;Drill -->
<g id="edge20" class="edge"><title>Battery&#45;&gt;Drill</title>
<path fill="none" stroke="black" d="M797.224,-225.758C811.057,-221.57 828.049,-216.426 842.953,-211.913"/>
<polygon fill="black" stroke="black" points="844.317,-215.157 852.873,-208.91 842.288,-208.458 844.317,-215.157"/>
<text text-anchor="middle" x="831.5" y="-218.8" font-family="Times New Roman,serif" font-size="14.00">2</text>
</g>
<!-- KOH&#45;&gt;Battery -->
<g id="edge13" class="edge"><title>KOH&#45;&gt;Battery</title>
<path fill="none" stroke="black" d="M687.64,-179.002C699.836,-187.532 714.64,-197.836 728,-207 729.425,-207.977 730.88,-208.973 732.351,-209.976"/>
<polygon fill="black" stroke="black" points="730.614,-213.028 740.852,-215.755 734.549,-207.239 730.614,-213.028"/>
<text text-anchor="middle" x="708" y="-197.8" font-family="Times New Roman,serif" font-size="14.00">t</text>
</g>
<!-- Broken drill -->
<g id="node16" class="node"><title>Broken drill</title>
<text text-anchor="middle" x="769" y="-176.3" font-family="Times New Roman,serif" font-size="14.00">Broken drill</text>
</g>
<!-- Broken drill&#45;&gt;Drill -->
<g id="edge19" class="edge"><title>Broken drill&#45;&gt;Drill</title>
<path fill="none" stroke="black" d="M810.278,-187.76C820.921,-189.81 832.342,-192.011 842.758,-194.018"/>
<polygon fill="black" stroke="black" points="842.29,-197.492 852.772,-195.947 843.614,-190.618 842.29,-197.492"/>
</g>
</g>
</svg>
