<?xml version="1.0" encoding="UTF-8" standalone="no"?>
<!DOCTYPE svg PUBLIC "-//W3C//DTD SVG 1.1//EN"
 "http://www.w3.org/Graphics/SVG/1.1/DTD/svg11.dtd">
<!-- Generated by graphviz version 2.38.0 (20140413.2041)
 -->
<!-- Title: %3 Pages: 1 -->
<svg width="567pt" height="212pt"
 viewBox="0.00 0.00 567.00 212.00" xmlns="http://www.w3.org/2000/svg" xmlns:xlink="http://www.w3.org/1999/xlink">
<g id="graph0" class="graph" transform="scale(1 1) rotate(0) translate(4 208)">
<title>%3</title>
<polygon fill="white" stroke="none" points="-4,4 -4,-208 563,-208 563,4 -4,4"/>
<!-- Aluminium ore -->
<g id="node1" class="node"><title>Aluminium ore</title>
<text text-anchor="middle" x="49" y="-136.3" font-family="Times New Roman,serif" font-size="14.00">Aluminium ore</text>
</g>
<!-- Aluminium ingot -->
<g id="node2" class="node"><title>Aluminium ingot</title>
<text text-anchor="middle" x="192" y="-136.3" font-family="Times New Roman,serif" font-size="14.00">Aluminium ingot</text>
</g>
<!-- Aluminium ore&#45;&gt;Aluminium ingot -->
<g id="edge1" class="edge"><title>Aluminium ore&#45;&gt;Aluminium ingot</title>
<path fill="none" stroke="black" d="M98.1298,-140C107.604,-140 117.678,-140 127.566,-140"/>
<polygon fill="black" stroke="black" points="127.769,-143.5 137.769,-140 127.769,-136.5 127.769,-143.5"/>
<text text-anchor="middle" x="118" y="-143.8" font-family="Times New Roman,serif" font-size="14.00">t</text>
</g>
<!-- Empty bucket -->
<g id="node3" class="node"><title>Empty bucket</title>
<text text-anchor="middle" x="350" y="-74.3" font-family="Times New Roman,serif" font-size="14.00">Empty bucket</text>
</g>
<!-- Aluminium ingot&#45;&gt;Empty bucket -->
<g id="edge2" class="edge"><title>Aluminium ingot&#45;&gt;Empty bucket</title>
<path fill="none" stroke="black" d="M238.541,-121.9C256.002,-114.961 276.104,-106.971 294.334,-99.7263"/>
<polygon fill="black" stroke="black" points="295.672,-102.961 303.672,-96.0149 293.086,-96.4558 295.672,-102.961"/>
<text text-anchor="middle" x="273.5" y="-113.8" font-family="Times New Roman,serif" font-size="14.00">t, 5</text>
</g>
<!-- Empty balloon -->
<g id="node4" class="node"><title>Empty balloon</title>
<text text-anchor="middle" x="350" y="-182.3" font-family="Times New Roman,serif" font-size="14.00">Empty balloon</text>
</g>
<!-- Aluminium ingot&#45;&gt;Empty balloon -->
<g id="edge3" class="edge"><title>Aluminium ingot&#45;&gt;Empty balloon</title>
<path fill="none" stroke="black" d="M246.25,-155.702C260.665,-159.952 276.338,-164.574 291,-168.897"/>
<polygon fill="black" stroke="black" points="290.379,-172.363 300.961,-171.835 292.359,-165.649 290.379,-172.363"/>
<text text-anchor="middle" x="273.5" y="-168.8" font-family="Times New Roman,serif" font-size="14.00">t, 3</text>
</g>
<!-- Oxygen balloon -->
<g id="node6" class="node"><title>Oxygen balloon</title>
<text text-anchor="middle" x="506.5" y="-128.3" font-family="Times New Roman,serif" font-size="14.00">Oxygen balloon</text>
</g>
<!-- Empty bucket&#45;&gt;Oxygen balloon -->
<g id="edge6" class="edge"><title>Empty bucket&#45;&gt;Oxygen balloon</title>
<path fill="none" stroke="black" d="M397.774,-94.3483C412.411,-99.464 428.786,-105.187 444.263,-110.597"/>
<polygon fill="black" stroke="black" points="443.166,-113.921 453.761,-113.916 445.476,-107.313 443.166,-113.921"/>
<text text-anchor="middle" x="426.5" y="-109.8" font-family="Times New Roman,serif" font-size="14.00">t, 2</text>
</g>
<!-- H₂O -->
<g id="node7" class="node"><title>H₂O</title>
<text text-anchor="middle" x="506.5" y="-33.3" font-family="Times New Roman,serif" font-size="14.00">H₂O</text>
</g>
<!-- Empty bucket&#45;&gt;H₂O -->
<g id="edge7" class="edge"><title>Empty bucket&#45;&gt;H₂O</title>
<path fill="none" stroke="black" d="M397.725,-62.5873C404.174,-60.6197 410.734,-58.7016 417,-57 434.084,-52.3609 453.224,-47.9405 469.322,-44.4409"/>
<polygon fill="black" stroke="black" points="470.364,-47.7972 479.41,-42.2811 468.898,-40.9524 470.364,-47.7972"/>
<text text-anchor="middle" x="426.5" y="-60.8" font-family="Times New Roman,serif" font-size="14.00">t, 5</text>
</g>
<!-- Empty balloon&#45;&gt;Oxygen balloon -->
<g id="edge5" class="edge"><title>Empty balloon&#45;&gt;Oxygen balloon</title>
<path fill="none" stroke="black" d="M399.038,-169.21C413.28,-164.232 429.076,-158.711 444.045,-153.479"/>
<polygon fill="black" stroke="black" points="445.453,-156.695 453.738,-150.092 443.143,-150.087 445.453,-156.695"/>
<text text-anchor="middle" x="426.5" y="-165.8" font-family="Times New Roman,serif" font-size="14.00">t</text>
</g>
<!-- HgO -->
<g id="node5" class="node"><title>HgO</title>
<text text-anchor="middle" x="350" y="-128.3" font-family="Times New Roman,serif" font-size="14.00">HgO</text>
</g>
<!-- HgO&#45;&gt;Oxygen balloon -->
<g id="edge4" class="edge"><title>HgO&#45;&gt;Oxygen balloon</title>
<path fill="none" stroke="black" d="M377.209,-132C395.433,-132 420.516,-132 443.672,-132"/>
<polygon fill="black" stroke="black" points="443.797,-135.5 453.797,-132 443.797,-128.5 443.797,-135.5"/>
<text text-anchor="middle" x="426.5" y="-135.8" font-family="Times New Roman,serif" font-size="14.00">t, 2</text>
</g>
<!-- CuSO₄·5H₂O -->
<g id="node8" class="node"><title>CuSO₄·5H₂O</title>
<text text-anchor="middle" x="350" y="-14.3" font-family="Times New Roman,serif" font-size="14.00">CuSO₄·5H₂O</text>
</g>
<!-- CuSO₄·5H₂O&#45;&gt;H₂O -->
<g id="edge8" class="edge"><title>CuSO₄·5H₂O&#45;&gt;H₂O</title>
<path fill="none" stroke="black" d="M396.142,-16.5084C409.06,-16.6283 423.127,-17.283 436,-19 447.048,-20.4735 458.857,-23.1139 469.549,-25.9261"/>
<polygon fill="black" stroke="black" points="468.824,-29.3569 479.395,-28.6426 470.686,-22.609 468.824,-29.3569"/>
<text text-anchor="middle" x="426.5" y="-22.8" font-family="Times New Roman,serif" font-size="14.00">t</text>
</g>
</g>
</svg>
